# xmcd
#
# Track frame offsets: 
#        150
#        15112
#        38626
#        61576
#        92251
#        112651
#        132226
#        154876
#        182642
#
# Disc length: 2779 seconds
#
# Revision: 0
# Processed by: cddbd v1.5.2PL0 Copyright (c) Steve Scherf et al.
# Submitted via: ExactAudioCopyFreeDBPlugin 1.0
#
DISCID=550ad909
DTITLE=Gacie Curran - Proof Of Love
DYEAR=2012
DGENRE=Blues
TTITLE0=Even With The Rain
TTITLE1=Take You With Me
TTITLE2=Jack and MaryJane
TTITLE3=Rock and A Hard Place
TTITLE4=Can't Getta
TTITLE5=Told Me So
TTITLE6=Been All Over
TTITLE7=Weight Of Her World
TTITLE8=With Friends Like These
EXTD=
EXTT0=
EXTT1=
EXTT2=
EXTT3=
EXTT4=
EXTT5=
EXTT6=
EXTT7=
EXTT8=
PLAYORDER=
